<svg class="svg" xmlns="http://www.w3.org/2000/svg" width="38" height="57" viewBox="0 0 38 57"><path fill="#1abcfe" fill-opacity="1" fill-rule="nonzero" stroke="none" d="M19 28.5c0-5.247 4.253-9.5 9.5-9.5 5.247 0 9.5 4.253 9.5 9.5 0 5.247-4.253 9.5-9.5 9.5-5.247 0-9.5-4.253-9.5-9.5z"></path><path fill="#0acf83" fill-opacity="1" fill-rule="nonzero" stroke="none" d="M0 47.5C0 42.253 4.253 38 9.5 38H19v9.5c0 5.247-4.253 9.5-9.5 9.5C4.253 57 0 52.747 0 47.5z"></path><path fill="#ff7262" fill-opacity="1" fill-rule="nonzero" stroke="none" d="M19 0v19h9.5c5.247 0 9.5-4.253 9.5-9.5C38 4.253 33.747 0 28.5 0H19z"></path><path fill="#f24e1e" fill-opacity="1" fill-rule="nonzero" stroke="none" d="M0 9.5C0 14.747 4.253 19 9.5 19H19V0H9.5C4.253 0 0 4.253 0 9.5z"></path><path fill="#a259ff" fill-opacity="1" fill-rule="nonzero" stroke="none" d="M0 28.5C0 33.747 4.253 38 9.5 38H19V19H9.5C4.253 19 0 23.253 0 28.5z"></path></svg>
